#!OML:ASF I:\Actors\actors\Patient Classification 1\Patient 1\Session 1\Subject1.ASF
:FULLY-SPECIFIED
:DEGREES
787
root 0.776583 17.519 8.82499 6.57522 7.80709 -8.44464
lowerback 2.58851 0.687036 6.97096
upperback -6.61869 1.47846 0.847877
thorax -8.30558 0.309328 -3.14644
lowerneck -11.58 -5.97563 -3.64261
upperneck 16.3963 -7.96974 2.58233
head 7.1812 -3.82767 0.656202
rclavicle 1.99282e-014 2.10712e-014
rhumerus -52.0892 32.852 -113.202
rradius 110.416
rwrist -5.81304
rhand 9.2582 -23.6201
rfingers 7.12502
rthumb 34.4224 -410.309
lclavicle 1.99282e-014 2.10712e-014
lhumerus 121.313 199.134 291.152
lradius 111.063
lwrist 14.3407
lhand -5.53749 -17.5147
lfingers 7.12502
lthumb 20.2769 11.4469
rfemur -0.118185 22.8206 27.3213
rtibia 3.73313
rfoot -16.8542 -27.5375
rtoes 8.98218
lfemur 0.104997 -34.5086 -7.92981
ltibia -0.781856
lfoot -7.90764 35.1346
ltoes -11.2231
788
root 0.75539 17.5168 8.85841 6.39272 8.64326 -8.17881
lowerback 2.0825 0.627434 6.92425
upperback -6.69327 1.35047 0.766607
thorax -8.10159 0.25279 -3.1859
lowerneck -11.6687 -5.81229 -3.6077
upperneck 17.1938 -7.75863 2.48874
head 7.44467 -3.72474 0.628613
rclavicle -5.41688e-015 -2.42517e-014
rhumerus -51.9914 32.4736 -113.141
rradius 110.182
rwrist -5.86349
rhand 7.75331 -23.5791
rfingers 7.12502
rthumb 32.9924 -410.581
lclavicle -5.41688e-015 -2.42517e-014
lhumerus 121.72 199.287 291.117
lradius 110.625
lwrist 14.3229
lhand -5.69378 -17.5572
lfingers 7.12502
lthumb 20.1267 11.4203
rfemur 0.408282 22.6301 27.3476
rtibia 3.56632
rfoot -17.3092 -28.0928
rtoes 9.52949
lfemur 0.116614 -34.4699 -8.12844
ltibia -0.787324
lfoot -7.61607 34.2988
ltoes -12.2177
789
root 0.735853 17.5167 8.88912 6.23668 9.14894 -7.87166
lowerback 1.65621 0.619085 6.75449
upperback -6.80754 1.29245 0.668034
thorax -7.98083 0.233882 -3.18365
lowerneck -11.9083 -5.72619 -3.48321
upperneck 18.34 -7.65648 2.2895
head 7.84796 -3.67343 0.532132
rclavicle 1.26228e-014 4.65156e-014
rhumerus -51.9033 32.166 -113.24
rradius 110.035
rwrist -5.97523
rhand 7.72251 -23.7455
rfingers 7.12502
rthumb 32.9631 -410.754
lclavicle 1.26228e-014 4.65156e-014
lhumerus 122.001 199.359 291.025
lradius 110.37
lwrist 14.6312
lhand -5.76445 -17.7566
lfingers 7.12502
lthumb 20.0588 11.228
rfemur 0.775786 22.6041 27.2922
rtibia 3.61438
rfoot -17.5647 -28.5636
rtoes 9.62916
lfemur 0.310674 -34.5478 -8.47993
ltibia -0.856043
lfoot -7.59499 33.916
ltoes -12.5793
790
root 0.717487 17.517 8.91411 6.048 9.31689 -7.55154
lowerback 1.77927 0.706372 6.59446
upperback -7.22582 1.42003 0.496256
thorax -8.49632 0.274511 -3.29235
lowerneck -11.7679 -5.62293 -2.94699
upperneck 19.5678 -7.53667 1.66679
head 8.18016 -3.63019 0.242511
rclavicle 1.50082e-014 -1.35174e-014
rhumerus -52.3897 31.5369 -113.669
rradius 110.09
rwrist -6.06971
rhand 9.60823 -23.8712
rfingers 7.12502
rthumb 34.7547 -410.484
lclavicle 1.50082e-014 -1.35174e-014
lhumerus 121.681 199.34 291.052
lradius 110.317
lwrist 14.6114
lhand -5.38699 -17.8007
lfingers 7.12502
lthumb 20.4216 11.1455
rfemur 1.04348 22.6206 27.1749
rtibia 3.81619
rfoot -17.7031 -28.8197
rtoes 9.46772
lfemur 0.697875 -34.6752 -8.97156
ltibia -0.939406
lfoot -7.64859 33.8915
ltoes -12.729
791
root 0.703603 17.5181 8.94002 5.86581 9.43778 -7.38786
lowerback 1.12668 0.671458 6.20061
upperback -7.12395 1.30782 0.701716
thorax -8.01719 0.272358 -2.83258
lowerneck -12.0434 -5.43558 -2.71052
upperneck 20.4994 -7.23483 1.16236
head 8.50675 -3.50904 0.0490307
rclavicle -1.635e-014 -6.36111e-015
rhumerus -52.1357 31.8119 -113.379
rradius 110.195
rwrist -6.03842
rhand 7.53577 -23.9738
rfingers 7.12502
rthumb 32.7855 -411.019
lclavicle -1.635e-014 -6.36111e-015
lhumerus 122.47 199.016 290.888
lradius 110.208
lwrist 14.3294
lhand -4.70967 -17.8286
lfingers 7.12502
lthumb 21.0723 11.0465
rfemur 1.30882 22.5047 27.2013
rtibia 3.9488
rfoot -17.8129 -28.9161
rtoes 9.34517
lfemur 1.07637 -34.7228 -9.30829
ltibia -1.02954
lfoot -7.63969 33.8619
ltoes -13.0642
792
root 0.69276 17.5184 8.9695 5.67656 9.53376 -7.34719
lowerback 0.82344 0.684216 6.1159
upperback -7.31028 1.31192 0.778624
thorax -8.04503 0.279305 -2.7001
lowerneck -12.2126 -5.34426 -2.60609
upperneck 21.7612 -7.11326 0.955619
head 8.95378 -3.45264 -0.0479532
rclavicle 6.01324e-015 1.11319e-014
rhumerus -52.2189 31.5895 -113.34
rradius 110.35
rwrist -6.00836
rhand 7.07723 -23.7993
rfingers 7.12502
rthumb 32.3492 -410.935
lclavicle 6.01324e-015 1.11319e-014
lhumerus 122.44 198.99 291.008
lradius 110.189
lwrist 14.5394
lhand -4.80401 -18.3351
lfingers 7.12502
lthumb 20.9817 10.55
rfemur 1.61852 22.3943 27.3766
rtibia 4.04598
rfoot -17.9465 -28.9708
rtoes 9.41837
lfemur 1.51961 -34.8408 -9.56464
ltibia -1.14204
lfoot -7.65954 33.9439
ltoes -13.3225
793
root 0.688162 17.5193 9.01062 5.58288 9.81084 -7.89237
lowerback 0.103878 0.665439 6.69458
upperback -7.49648 1.28006 0.971768
thorax -7.83354 0.237201 -2.80508
lowerneck -12.3244 -5.25986 -2.36051
upperneck 22.8214 -7.00758 0.672226
head 9.31899 -3.40292 -0.191652
rclavicle -1.31695e-014 9.54166e-015
rhumerus -52.1893 31.399 -113.265
rradius 110.505
rwrist -6.09429
rhand 7.26354 -23.5587
rfingers 7.12502
rthumb 32.5265 -410.658
lclavicle -1.31695e-014 9.54166e-015
lhumerus 122.267 199.137 291.197
lradius 110.295
lwrist 15.0333
lhand -5.55928 -18.7797
lfingers 7.12502
lthumb 20.256 10.1841
rfemur 1.79871 22.0552 28.1667
rtibia 4.09199
rfoot -18.0575 -28.9104
rtoes 9.50918
lfemur 1.68824 -34.6931 -8.9708
ltibia -1.28952
lfoot -7.40039 33.6723
ltoes -14.375
794
root 0.686873 17.5159 9.04164 5.45069 9.85394 -8.05339
lowerback 0.163289 0.789169 7.24047
upperback -8.02106 1.49527 0.798082
thorax -8.41991 0.268279 -3.31107
lowerneck -12.0795 -5.28704 -2.24605
upperneck 23.9253 -7.12168 0.726059
head 9.66069 -3.43209 -0.216647
rclavicle -3.97569e-016 -2.90226e-014
rhumerus -52.6061 30.5958 -113.495
rradius 110.713
rwrist -6.00321
rhand 7.84258 -23.416
rfingers 7.12502
rthumb 33.0773 -410.4
lclavicle -3.97569e-016 -2.90226e-014
lhumerus 121.35 199.536 291.468
lradius 110.703
lwrist 15.2368
lhand -5.99681 -18.1799
lfingers 7.12502
lthumb 19.8354 10.8279
rfemur 2.02515 21.8189 28.4796
rtibia 4.12703
rfoot -18.0547 -28.8053
rtoes 9.3074
lfemur 2.00963 -34.6233 -8.94126
ltibia -1.37378
lfoot -7.33958 33.612
ltoes -14.7987
795
root 0.685566 17.5117 9.06687 5.28661 9.75021 -8.1503
lowerback 0.0326662 0.833254 7.47007
upperback -8.26974 1.56865 0.803342
thorax -8.61071 0.275964 -3.43728
lowerneck -12.1261 -5.22721 -2.21279
upperneck 24.8351 -7.0767 0.746351
head 9.99324 -3.39583 -0.226296
rclavicle 1.30204e-014 -1.03368e-014
rhumerus -52.7163 30.4398 -113.479
rradius 110.87
rwrist -5.85157
rhand 8.20968 -23.3208
rfingers 7.12502
rthumb 33.4264 -410.23
lclavicle 1.30204e-014 -1.03368e-014
lhumerus 120.979 199.65 291.575
lradius 110.834
lwrist 15.4767
lhand -6.06084 -18.1531
lfingers 7.12502
lthumb 19.7739 10.8611
rfemur 2.28794 21.7862 28.7205
rtibia 4.12963
rfoot -17.9251 -28.7967
rtoes 8.75416
lfemur 2.42325 -34.6082 -9.01595
ltibia -1.47633
lfoot -7.60651 33.7002
ltoes -14.2116
796
root 0.685351 17.5083 9.09053 5.15426 9.64244 -8.25884
lowerback -0.279816 0.814064 7.57958
upperback -8.39552 1.5323 0.893206
thorax -8.57289 0.253067 -3.39447
lowerneck -12.3539 -5.1311 -2.0531
upperneck 25.6753 -6.96666 0.621795
head 10.3282 -3.33293 -0.303274
rclavicle 3.97569e-015 1.66979e-014
rhumerus -52.6561 30.5601 -113.374
rradius 110.95
rwrist -5.57635
rhand 7.83323 -23.2118
rfingers 7.12502
rthumb 33.0684 -410.197
lclavicle 3.97569e-015 1.66979e-014
lhumerus 120.835 199.675 291.609
lradius 110.892
lwrist 15.6779
lhand -6.1455 -18.2051
lfingers 7.12502
lthumb 19.6925 10.8174
rfemur 2.52764 21.83 28.9621
rtibia 4.11097
rfoot -17.8294 -28.823
rtoes 8.39011
lfemur 2.79037 -34.6089 -9.05824
ltibia -1.56186
lfoot -7.89455 33.7972
ltoes -13.6404
797
root 0.686761 17.5049 9.11373 5.08503 9.51784 -8.28592
lowerback -0.662116 0.787532 7.57819
upperback -8.51722 1.47119 0.949647
thorax -8.49159 0.226289 -3.32289
lowerneck -12.5369 -5.05335 -1.86992
upperneck 26.4356 -6.91546 0.597611
head 10.6342 -3.28386 -0.354053
rclavicle -1.43125e-014 1.55052e-014
rhumerus -52.5891 30.6659 -113.312
rradius 110.949
rwrist -5.3247
rhand 7.82919 -23.2015
rfingers 7.12502
rthumb 33.0646 -410.188
lclavicle -1.43125e-014 1.55052e-014
lhumerus 120.699 199.719 291.602
lradius 110.915
lwrist 15.911
lhand -6.33096 -18.176
lfingers 7.12502
lthumb 19.5142 10.8647
rfemur 2.70841 21.8716 29.0726
rtibia 4.09538
rfoot -17.8545 -28.7782
rtoes 8.43947
lfemur 3.08468 -34.6628 -9.18754
ltibia -1.60054
lfoot -8.07964 33.9547
ltoes -13.3582
798
root 0.688774 17.5026 9.13488 5.05564 9.37215 -8.26401
lowerback -1.038 0.755566 7.52178
upperback -8.63501 1.39907 0.980617
thorax -8.41043 0.196923 -3.24785
lowerneck -12.6593 -4.99522 -1.71865
upperneck 27.0095 -6.90504 0.655411
head 10.8682 -3.24885 -0.370825
rclavicle 1.49089e-014 -7.95139e-016
rhumerus -52.4997 30.7916 -113.259
rradius 110.897
rwrist -5.31577
rhand 8.61966 -23.3015
rfingers 7.12502
rthumb 33.816 -410.126
lclavicle 1.49089e-014 -7.95139e-016
lhumerus 120.525 199.745 291.554
lradius 110.966
lwrist 16.1575
lhand -6.54906 -18.1703
lfingers 7.12502
lthumb 19.3045 10.8916
rfemur 2.8239 21.9303 29.0964
rtibia 4.0959
rfoot -17.915 -28.7051
rtoes 8.64756
lfemur 3.27113 -34.6138 -9.31086
ltibia -1.57673
lfoot -8.28404 33.9962
ltoes -13.036
799
root 0.691337 17.501 9.15428 5.03793 9.22516 -8.24718
lowerback -1.36712 0.705247 7.47591
upperback -8.75791 1.30763 1.01071
thorax -8.36474 0.15566 -3.18001
lowerneck -12.705 -4.91718 -1.56592
upperneck 27.4162 -6.85074 0.669252
head 11.0238 -3.20147 -0.392373
rclavicle 4.57205e-015 6.36111e-015
rhumerus -52.4197 30.9687 -113.231
rradius 110.866
rwrist -5.42417
rhand 9.54451 -23.2748
rfingers 7.12502
rthumb 34.6942 -409.902
lclavicle 4.57205e-015 6.36111e-015
lhumerus 120.342 199.741 291.503
lradius 111.009
lwrist 16.3269
lhand -6.62527 -18.2637
lfingers 7.12502
lthumb 19.2312 10.8054
rfemur 2.8847 21.9518 29.1074
rtibia 4.13577
rfoot -17.8795 -28.6268
rtoes 8.68955
lfemur 3.39732 -34.4617 -9.38538
ltibia -1.5025
lfoot -8.65932 33.8914
ltoes -12.5374
800
root 0.694303 17.4997 9.17291 5.00966 9.07645 -8.26106
lowerback -1.69734 0.634752 7.36306
upperback -8.84732 1.19013 1.11542
thorax -8.28498 0.111679 -2.99503
lowerneck -12.7474 -4.83438 -1.37851
upperneck 27.7427 -6.75717 0.549398
head 11.1421 -3.14997 -0.460978
rclavicle 2.17669e-014 -2.0276e-014
rhumerus -52.4079 31.2219 -113.19
rradius 110.868
rwrist -5.40824
rhand 10.0972 -23.1573
rfingers 7.12502
rthumb 35.2186 -409.662
lclavicle 2.17669e-014 -2.0276e-014
lhumerus 120.25 199.681 291.519
lradius 111.035
lwrist 16.398
lhand -6.55382 -18.2813
lfingers 7.12502
lthumb 19.2999 10.7809
rfemur 2.92888 21.9466 29.1507
rtibia 4.22072
rfoot -17.8311 -28.5356
rtoes 8.7551
lfemur 3.55723 -34.351 -9.43901
ltibia -1.4706
lfoot -8.91305 33.818
ltoes -12.3298
